<svg width="162" height="20" viewBox="0 0 162 20" fill="none" xmlns="http://www.w3.org/2000/svg">
<path d="M9.50373 0.860129C9.80357 -0.0601477 11.1055 -0.0601469 11.4053 0.86013L13.1564 6.23453C13.2905 6.64615 13.6743 6.92473 14.1072 6.92473H19.768C20.7374 6.92473 21.1397 8.16576 20.3547 8.73452L15.7798 12.0492C15.4284 12.3038 15.2813 12.7561 15.4157 13.1687L17.1643 18.5354C17.4643 19.4562 16.4111 20.2232 15.6268 19.655L11.0413 16.3326C10.6912 16.079 10.2179 16.079 9.86781 16.3326L5.28227 19.655C4.49801 20.2232 3.44472 19.4562 3.74474 18.5354L5.49332 13.1687C5.62777 12.7561 5.48069 12.3038 5.12923 12.0492L0.554356 8.73453C-0.23065 8.16576 0.17168 6.92473 1.14107 6.92473H6.80183C7.23476 6.92473 7.61852 6.64615 7.75263 6.23453L9.50373 0.860129Z" fill="#070707"/>
<path d="M44.6009 0.860129C44.9007 -0.0601477 46.2027 -0.0601469 46.5025 0.86013L48.2536 6.23453C48.3877 6.64615 48.7715 6.92473 49.2044 6.92473H54.8652C55.8346 6.92473 56.2369 8.16576 55.4519 8.73452L50.877 12.0492C50.5255 12.3038 50.3785 12.7561 50.5129 13.1687L52.2615 18.5354C52.5615 19.4562 51.5082 20.2232 50.724 19.655L46.1384 16.3326C45.7884 16.079 45.315 16.079 44.965 16.3326L40.3794 19.655C39.5952 20.2232 38.5419 19.4562 38.8419 18.5354L40.5905 13.1687C40.7249 12.7561 40.5779 12.3038 40.2264 12.0492L35.6515 8.73453C34.8665 8.16576 35.2688 6.92473 36.2382 6.92473H41.899C42.3319 6.92473 42.7157 6.64615 42.8498 6.23453L44.6009 0.860129Z" fill="#070707"/>
<path d="M79.6981 0.860129C79.9979 -0.0601477 81.2998 -0.0601469 81.5997 0.86013L83.3508 6.23453C83.4849 6.64615 83.8686 6.92473 84.3016 6.92473H89.9623C90.9317 6.92473 91.3341 8.16576 90.549 8.73452L85.9742 12.0492C85.6227 12.3038 85.4756 12.7561 85.6101 13.1687L87.3587 18.5354C87.6587 19.4562 86.6054 20.2232 85.8211 19.655L81.2356 16.3326C80.8856 16.079 80.4122 16.079 80.0622 16.3326L75.4766 19.655C74.6923 20.2232 73.6391 19.4562 73.9391 18.5354L75.6877 13.1687C75.8221 12.7561 75.675 12.3038 75.3236 12.0492L70.7487 8.73453C69.9637 8.16576 70.366 6.92473 71.3354 6.92473H76.9962C77.4291 6.92473 77.8129 6.64615 77.947 6.23453L79.6981 0.860129Z" fill="#070707"/>
<path d="M114.795 0.860129C115.095 -0.0601477 116.397 -0.0601469 116.697 0.86013L118.448 6.23453C118.582 6.64615 118.966 6.92473 119.399 6.92473H125.059C126.029 6.92473 126.431 8.16576 125.646 8.73452L121.071 12.0492C120.72 12.3038 120.573 12.7561 120.707 13.1687L122.456 18.5354C122.756 19.4562 121.703 20.2232 120.918 19.655L116.333 16.3326C115.983 16.079 115.509 16.079 115.159 16.3326L110.574 19.655C109.79 20.2232 108.736 19.4562 109.036 18.5354L110.785 13.1687C110.919 12.7561 110.772 12.3038 110.421 12.0492L105.846 8.73453C105.061 8.16576 105.463 6.92473 106.433 6.92473H112.093C112.526 6.92473 112.91 6.64615 113.044 6.23453L114.795 0.860129Z" fill="#E5E5E5"/>
<path d="M149.892 0.860129C150.192 -0.0601477 151.494 -0.0601469 151.794 0.86013L153.545 6.23453C153.679 6.64615 154.063 6.92473 154.496 6.92473H160.157C161.126 6.92473 161.528 8.16576 160.743 8.73452L156.169 12.0492C155.817 12.3038 155.67 12.7561 155.804 13.1687L157.553 18.5354C157.853 19.4562 156.8 20.2232 156.015 19.655L151.43 16.3326C151.08 16.079 150.607 16.079 150.256 16.3326L145.671 19.655C144.887 20.2232 143.833 19.4562 144.133 18.5354L145.882 13.1687C146.016 12.7561 145.869 12.3038 145.518 12.0492L140.943 8.73453C140.158 8.16576 140.56 6.92473 141.53 6.92473H147.191C147.623 6.92473 148.007 6.64615 148.141 6.23453L149.892 0.860129Z" fill="#E5E5E5"/>
</svg>
